<?xml version="1.0" encoding="utf-8"?>
<!-- Generator: Adobe Illustrator 19.0.0, SVG Export Plug-In . SVG Version: 6.00 Build 0)  -->
<svg version="1.1" id="Layer_1" xmlns="http://www.w3.org/2000/svg" xmlns:xlink="http://www.w3.org/1999/xlink" x="0px" y="0px"
	 viewBox="142 35 156 155" style="enable-background:new 61 32.5 350.1 162.3" xml:space="preserve">
<style type="text/css">
	.st0{fill:#F4AC47;}
	.st1{fill:#2B7473;}
	.st2{fill:white;stroke:#2B7473;stroke-width:7.0866;stroke-miterlimit:10;}
</style>
<g id="XMLID_132_">
<circle id="XMLID_7_" class="st2" cx="220.5" cy="112.8" r="72.2"/>
	<path id="XMLID_133_" class="st0" d="M183.8,160.1c0-31.4,0-62.7,0-94.1c4.4-0.5,8.8-1.1,13.2-1.3c6.5-0.3,13-0.5,19.5-0.3
		c8,0.3,15.8,1.8,23,5.5c10.4,5.2,17.3,13.5,20.4,24.7c3.5,12.5,3,25-1.5,37.1c-4.8,13.2-14.2,21.7-27.5,26
		c-7.6,2.4-15.3,3.6-23.2,3.5c-7.5-0.1-15-0.6-22.5-0.9C184.8,160.3,184.3,160.2,183.8,160.1z M196.1,112.8c0,12.2,0,24.4,0,36.6
		c0,0.9,0.2,1.3,1.1,1.4c2.2,0.1,4.4,0.4,6.6,0.4c6.2,0.2,12.4,0.1,18.4-1.5c10.6-2.7,18.7-8.6,23.1-18.8c4.3-9.8,4.9-20.1,2.9-30.4
		c-2.2-11.4-8.7-19.5-19.7-23.6c-10.2-3.8-20.8-3.5-31.3-1.9c-1,0.1-1.2,0.6-1.2,1.5C196.1,88.6,196.1,100.7,196.1,112.8z"/>
</g>
<g id="XMLID_100_">
	<path id="XMLID_123_" class="st1" d="M196.1,160c0-31.4,0-62.7,0-94.1c4.4-0.5,8.8-1.1,13.2-1.3c6.5-0.3,13-0.5,19.5-0.3
		c8,0.3,15.8,1.8,23,5.5c10.4,5.2,17.3,13.5,20.4,24.7c3.5,12.5,3,25-1.5,37.1c-4.8,13.2-14.2,21.7-27.5,26
		c-7.6,2.4-15.3,3.6-23.2,3.5c-7.5-0.1-15-0.6-22.5-0.9C197.1,160.2,196.6,160.1,196.1,160z M208.3,112.8c0,12.2,0,24.4,0,36.6
		c0,0.9,0.2,1.3,1.1,1.4c2.2,0.1,4.4,0.4,6.6,0.4c6.2,0.2,12.4,0.1,18.4-1.5c10.6-2.7,18.7-8.6,23.1-18.8c4.3-9.8,4.9-20.1,2.9-30.4
		c-2.2-11.4-8.7-19.5-19.7-23.6c-10.2-3.8-20.8-3.5-31.3-1.9c-1,0.1-1.2,0.6-1.2,1.5C208.3,88.5,208.3,100.7,208.3,112.8z"/>
</g>

</svg>
